<?xml version="1.0" encoding="UTF-8" standalone="no"?>
<!DOCTYPE svg PUBLIC "-//W3C//DTD SVG 1.1//EN" "http://www.w3.org/Graphics/SVG/1.1/DTD/svg11.dtd">
<svg width="100%" height="100%" viewBox="0 0 80 80" version="1.1" xmlns="http://www.w3.org/2000/svg" xmlns:xlink="http://www.w3.org/1999/xlink" xml:space="preserve" xmlns:serif="http://www.serif.com/" style="fill-rule:evenodd;clip-rule:evenodd;stroke-linejoin:round;stroke-miterlimit:2;">
    <g transform="matrix(0.31288,0,0,0.31288,-323.429,-386.546)">
        <g transform="matrix(0.759661,0,0,0.818774,-173.429,974.935)">
            <g transform="matrix(0.918539,0,-0.307458,0.647382,762.414,-398.451)">
                <path d="M1600.76,1219.44L1746.38,1219.44L1746.38,1356.72L1678.64,1356.72L1678.64,1316.03L1671.47,1306.83L1600.76,1306.83L1600.76,1219.44Z" style="fill:rgb(33,150,243);"/>
            </g>
            <g transform="matrix(0.730897,0,-0.272395,0.573554,915.791,-330.494)">
                <path d="M1745.1,1243.4L1744.88,1243.4L1744.88,1355.89L1673.06,1355.89L1673.06,1317.95L1664.04,1307.57L1601.88,1307.57L1601.88,1220.27L1745.1,1220.27L1745.1,1243.4Z" style="fill:rgb(33,150,243);"/>
            </g>
            <g transform="matrix(1,0,0,1,-369.623,-384.132)">
                <path d="M2129.5,831.703L2107.08,831.703L2095.19,856.723L2066.2,856.723L2055.74,878.747L2047.14,878.747L2078.87,811.931L2138.89,811.931L2129.5,831.703Z" style="fill:rgb(33,150,243);"/>
            </g>
            <g transform="matrix(1,0,0,1,-369.623,-384.132)">
                <path d="M2071.47,865.056L2091.24,865.056L2076.55,895.978L2080.31,901.932L2128.09,901.932L2117.62,923.97L2043.49,923.97L2071.47,865.056Z" style="fill:rgb(33,150,243);"/>
            </g>
            <g transform="matrix(1,0,0,1,-323.586,-362.417)">
                <path d="M2091.27,880.216L2112.6,880.216L2081.31,946.081L2059.99,946.081L2091.27,880.216Z" style="fill:rgb(255,87,34);"/>
            </g>
            <g transform="matrix(1,0,0,1,-369.623,-384.132)">
                <path d="M2258.96,840.036L2233.52,893.598L2171.82,893.598L2181.91,872.344L2171.82,893.598L2086.91,893.598L2112.34,840.036L2258.96,840.036ZM2178.95,872.329L2176.88,869.054L2178.95,872.329Z" style="fill:rgb(255,87,34);"/>
            </g>
        </g>
    </g>
</svg>
