<?xml version="1.0" encoding="UTF-8" standalone="no"?>
<!DOCTYPE svg PUBLIC "-//W3C//DTD SVG 1.1//EN" "http://www.w3.org/Graphics/SVG/1.1/DTD/svg11.dtd">
<svg width="100%" height="100%" viewBox="0 0 240 80" version="1.1" xmlns="http://www.w3.org/2000/svg" xmlns:xlink="http://www.w3.org/1999/xlink" xml:space="preserve" xmlns:serif="http://www.serif.com/" style="fill-rule:evenodd;clip-rule:evenodd;stroke-linejoin:round;stroke-miterlimit:2;">
    <g transform="matrix(0.31288,0,0,0.31288,-323.429,-386.546)">
        <g transform="matrix(0.759661,0,0,0.818774,-173.429,974.935)">
            <g transform="matrix(0.918539,0,-0.307458,0.647382,762.414,-398.451)">
                <path d="M1600.76,1219.44L1746.38,1219.44L1746.38,1356.72L1678.64,1356.72L1678.64,1316.03L1671.47,1306.83L1600.76,1306.83L1600.76,1219.44Z" style="fill:rgb(33,150,243);"/>
            </g>
            <g transform="matrix(0.730897,0,-0.272395,0.573554,915.791,-330.494)">
                <path d="M1745.1,1243.4L1744.88,1243.4L1744.88,1355.89L1673.06,1355.89L1673.06,1317.95L1664.04,1307.57L1601.88,1307.57L1601.88,1220.27L1745.1,1220.27L1745.1,1243.4Z" style="fill:rgb(33,150,243);"/>
            </g>
            <g transform="matrix(1,0,0,1,-369.623,-384.132)">
                <path d="M2129.5,831.703L2107.08,831.703L2095.19,856.723L2066.2,856.723L2055.74,878.747L2047.14,878.747L2078.87,811.931L2138.89,811.931L2129.5,831.703Z" style="fill:rgb(33,150,243);"/>
            </g>
            <g transform="matrix(1,0,0,1,-369.623,-384.132)">
                <path d="M2071.47,865.056L2091.24,865.056L2076.55,895.978L2080.31,901.932L2128.09,901.932L2117.62,923.97L2043.49,923.97L2071.47,865.056Z" style="fill:rgb(33,150,243);"/>
            </g>
            <g transform="matrix(1,0,0,1,-323.586,-362.417)">
                <path d="M2091.27,880.216L2112.6,880.216L2081.31,946.081L2059.99,946.081L2091.27,880.216Z" style="fill:rgb(255,87,34);"/>
            </g>
            <g transform="matrix(1,0,0,1,-369.623,-384.132)">
                <path d="M2258.96,840.036L2233.52,893.598L2171.82,893.598L2181.91,872.344L2171.82,893.598L2086.91,893.598L2112.34,840.036L2258.96,840.036ZM2178.95,872.329L2176.88,869.054L2178.95,872.329Z" style="fill:rgb(255,87,34);"/>
            </g>
        </g>
        <g transform="matrix(1.01484,0,0,0.757764,-501.707,359.193)">
            <g transform="matrix(205.288,0,0,274.932,1885.24,1419.1)">
                <rect x="0.058" y="-0.706" width="0.051" height="0.706" style="fill-rule:nonzero;"/>
            </g>
            <g transform="matrix(205.288,0,0,274.932,1948.26,1419.1)">
                <path d="M0.06,-0.707L0.187,-0.707C0.198,-0.707 0.21,-0.706 0.225,-0.705C0.239,-0.704 0.252,-0.7 0.265,-0.693C0.277,-0.686 0.287,-0.674 0.296,-0.658C0.305,-0.642 0.309,-0.62 0.309,-0.591L0.309,-0.49C0.309,-0.469 0.307,-0.452 0.302,-0.439C0.297,-0.426 0.291,-0.416 0.283,-0.408C0.276,-0.401 0.267,-0.395 0.257,-0.392C0.246,-0.389 0.236,-0.386 0.225,-0.383C0.247,-0.38 0.265,-0.375 0.279,-0.369C0.293,-0.363 0.304,-0.355 0.312,-0.344C0.32,-0.334 0.326,-0.321 0.329,-0.306C0.332,-0.291 0.333,-0.273 0.333,-0.252L0.333,-0.132C0.333,-0.116 0.331,-0.1 0.328,-0.085C0.325,-0.069 0.318,-0.055 0.309,-0.042C0.3,-0.029 0.286,-0.019 0.269,-0.012C0.251,-0.004 0.228,-0 0.2,-0L0.06,-0L0.06,-0.707ZM0.108,-0.664L0.108,-0.402L0.156,-0.402C0.181,-0.402 0.201,-0.405 0.215,-0.411C0.229,-0.418 0.239,-0.426 0.246,-0.436C0.253,-0.446 0.257,-0.457 0.258,-0.469C0.259,-0.48 0.26,-0.491 0.26,-0.501L0.26,-0.586C0.26,-0.617 0.253,-0.638 0.239,-0.649C0.226,-0.659 0.203,-0.664 0.17,-0.664L0.108,-0.664ZM0.109,-0.359L0.109,-0.043L0.192,-0.043C0.214,-0.043 0.231,-0.046 0.244,-0.051C0.256,-0.057 0.265,-0.065 0.271,-0.075C0.277,-0.085 0.281,-0.097 0.282,-0.11C0.283,-0.123 0.284,-0.138 0.284,-0.153L0.284,-0.253C0.284,-0.265 0.283,-0.277 0.281,-0.29C0.278,-0.303 0.273,-0.314 0.265,-0.325C0.256,-0.335 0.244,-0.343 0.228,-0.349C0.211,-0.356 0.189,-0.359 0.16,-0.359L0.109,-0.359Z" style="fill-rule:nonzero;"/>
            </g>
            <g transform="matrix(205.288,0,0,274.932,2053.99,1419.1)">
                <path d="M0.051,-0.64L0.094,-0.64L0.094,-0.562L0.051,-0.562L0.051,-0.64ZM0.051,-0.504L0.094,-0.504L0.094,-0L0.051,-0L0.051,-0.504Z" style="fill-rule:nonzero;"/>
            </g>
            <g transform="matrix(205.288,0,0,274.932,2112.7,1419.1)">
                <path d="M0.091,-0.174C0.091,-0.147 0.092,-0.126 0.094,-0.11C0.095,-0.093 0.101,-0.078 0.112,-0.065C0.118,-0.058 0.125,-0.052 0.132,-0.048C0.139,-0.043 0.146,-0.04 0.154,-0.038C0.161,-0.035 0.169,-0.034 0.175,-0.033C0.183,-0.032 0.189,-0.032 0.194,-0.032C0.229,-0.032 0.253,-0.042 0.266,-0.062C0.279,-0.082 0.285,-0.11 0.285,-0.147C0.285,-0.167 0.283,-0.185 0.281,-0.199C0.278,-0.214 0.272,-0.228 0.264,-0.242C0.256,-0.256 0.245,-0.271 0.232,-0.285C0.219,-0.3 0.202,-0.317 0.182,-0.337C0.162,-0.357 0.145,-0.376 0.13,-0.392C0.115,-0.408 0.102,-0.425 0.091,-0.441C0.08,-0.457 0.072,-0.475 0.067,-0.494C0.062,-0.513 0.059,-0.535 0.059,-0.56C0.059,-0.574 0.06,-0.591 0.063,-0.609C0.065,-0.627 0.07,-0.644 0.079,-0.66C0.088,-0.676 0.101,-0.689 0.118,-0.7C0.136,-0.711 0.161,-0.716 0.192,-0.716C0.225,-0.716 0.25,-0.711 0.268,-0.7C0.286,-0.689 0.299,-0.675 0.308,-0.659C0.316,-0.642 0.321,-0.625 0.322,-0.606C0.323,-0.587 0.324,-0.569 0.324,-0.552L0.324,-0.501L0.275,-0.501L0.275,-0.564C0.275,-0.575 0.275,-0.586 0.274,-0.599C0.273,-0.612 0.27,-0.624 0.265,-0.634C0.26,-0.646 0.251,-0.655 0.24,-0.662C0.229,-0.669 0.213,-0.673 0.193,-0.673C0.161,-0.673 0.139,-0.664 0.126,-0.646C0.114,-0.628 0.108,-0.602 0.108,-0.567C0.108,-0.55 0.109,-0.535 0.112,-0.521C0.115,-0.508 0.12,-0.494 0.129,-0.479C0.137,-0.465 0.149,-0.448 0.165,-0.429C0.18,-0.411 0.201,-0.388 0.228,-0.361C0.246,-0.343 0.262,-0.326 0.275,-0.312C0.288,-0.297 0.299,-0.282 0.308,-0.267C0.317,-0.252 0.323,-0.236 0.328,-0.219C0.332,-0.201 0.334,-0.181 0.334,-0.157C0.334,-0.14 0.333,-0.122 0.331,-0.102C0.328,-0.083 0.322,-0.065 0.313,-0.048C0.303,-0.031 0.289,-0.017 0.27,-0.006C0.251,0.005 0.224,0.011 0.19,0.011C0.169,0.011 0.15,0.008 0.132,0.003C0.114,-0.002 0.098,-0.01 0.085,-0.022C0.072,-0.033 0.061,-0.048 0.054,-0.066C0.046,-0.084 0.042,-0.106 0.042,-0.131L0.042,-0.23L0.091,-0.23L0.091,-0.174Z" style="fill-rule:nonzero;"/>
            </g>
        </g>
    </g>
</svg>
